<?xml version="1.0" encoding="utf-8"?>
<!-- Generator: Adobe Illustrator 24.1.2, SVG Export Plug-In . SVG Version: 6.00 Build 0)  -->
<svg version="1.1" id="Layer_1" xmlns="http://www.w3.org/2000/svg" xmlns:xlink="http://www.w3.org/1999/xlink" x="0px" y="0px"
	 viewBox="0 0 144 134.7" style="enable-background:new 0 0 144 134.7;" xml:space="preserve">
<style type="text/css">
	.st0{fill:#FFFFFF;}
</style>
<g>
	<circle cx="72" cy="67.3" r="67"/>
	<g>
		<path class="st0" d="M70,40.7c10,0,19.8,0,29.8,0c0,1.9,0,3.6,0,5.2c-0.3,0.2-0.5,0.3-0.7,0.4c-8.4,0.8-9.3,1.9-9.4,10.4
			c-0.1,15.2,0,30.4-0.6,45.6c-0.4,10.7-8.2,18.4-19.1,19.5C70,94.9,70,68.1,70,40.7z"/>
		<path class="st0" d="M96.4,21.1c-4.7,4.7-9.5,9.5-14.4,14.3c-4.6-4.7-9.4-9.6-13.9-14.2c4.6-4.6,9.5-9.5,14.3-14.3
			C86.8,11.3,91.6,16.2,96.4,21.1z"/>
		<path class="st0" d="M67,110.6c0.1,6.4-5,11.6-11.4,11.6c-6.3,0.1-11.5-5.2-11.5-11.5c0-6.2,5-11.2,11.3-11.3
			C61.9,99.2,67,104.1,67,110.6z"/>
	</g>
</g>
</svg>
